<svg width="32" height="32" viewBox="0 0 32 32" fill="none" xmlns="http://www.w3.org/2000/svg">
<path d="M16 31.5258C24.5727 31.5258 31.5223 24.6273 31.5223 16.1175C31.5223 7.60764 24.5727 0.709076 16 0.709076C7.42726 0.709076 0.477692 7.60764 0.477692 16.1175C0.477692 24.6273 7.42726 31.5258 16 31.5258Z" fill="white"/>
<path d="M15.9792 15.862L23.268 29.776L9.07452 30.1016L15.9792 15.862Z" fill="#D97700"/>
<path d="M15.9793 15.862L9.25115 30.0543L0.566112 19.1242L15.9793 15.862Z" fill="#FF920D"/>
<path d="M15.9792 15.862L0.560671 19.2013L4.32831 5.6317L15.9792 15.862Z" fill="#FFC680"/>
<path d="M15.9792 15.862L4.20506 5.84387L16.8203 0.278268L15.9792 15.862Z" fill="#FFE8CC"/>
<path d="M15.9792 15.862L27.7534 5.5656L31.5308 18.8483L15.9792 15.862Z" fill="#995400"/>
<path d="M15.9792 15.862L16.8203 0.278285L27.7534 5.56561L15.9792 15.862Z" fill="#663800"/>
<path d="M15.9793 15.862L31.2121 18.6466L27.1928 24.2104L22.9877 29.4977L15.9793 15.862Z" fill="#B36200"/>
<path d="M16 30.8869C24.2172 30.8869 30.8786 24.2744 30.8786 16.1174C30.8786 7.9605 24.2172 1.34799 16 1.34799C7.78274 1.34799 1.12134 7.9605 1.12134 16.1174C1.12134 24.2744 7.78274 30.8869 16 30.8869Z" stroke="#F9F9F9" stroke-width="3"/>
</svg>
