<svg width="32" height="32" viewBox="0 0 32 32" fill="none" xmlns="http://www.w3.org/2000/svg">
<path d="M16 31.5258C24.5727 31.5258 31.5223 24.6273 31.5223 16.1175C31.5223 7.60764 24.5727 0.709076 16 0.709076C7.42727 0.709076 0.477699 7.60764 0.477699 16.1175C0.477699 24.6273 7.42727 31.5258 16 31.5258Z" fill="white"/>
<path d="M15.9793 15.862L23.268 29.776L9.07454 30.1016L15.9793 15.862Z" fill="#888888"/>
<path d="M15.9793 15.862L9.25115 30.0543L0.566112 19.1242L15.9793 15.862Z" fill="#ACACAC"/>
<path d="M15.9793 15.862L0.560687 19.2013L4.32833 5.6317L15.9793 15.862Z" fill="#C4C4C4"/>
<path d="M15.9792 15.862L4.20506 5.84387L16.8203 0.278268L15.9792 15.862Z" fill="#E7E7E7"/>
<path d="M15.9793 15.862L27.7534 5.5656L31.5308 18.8483L15.9793 15.862Z" fill="#414141"/>
<path d="M15.9793 15.862L16.8203 0.278285L27.7534 5.56561L15.9793 15.862Z" fill="#292929"/>
<path d="M15.9793 15.862L31.2121 18.6466L27.1928 24.2104L22.9877 29.4977L15.9793 15.862Z" fill="#646464"/>
<path d="M16 30.8869C24.2173 30.8869 30.8787 24.2744 30.8787 16.1174C30.8787 7.9605 24.2173 1.34799 16 1.34799C7.78275 1.34799 1.12135 7.9605 1.12135 16.1174C1.12135 24.2744 7.78275 30.8869 16 30.8869Z" stroke="#F9F9F9" stroke-width="3"/>
</svg>
